<?xml version="1.0" standalone="no"?>
<!DOCTYPE svg PUBLIC "-//W3C//DTD SVG 20010904//EN"
 "http://www.w3.org/TR/2001/REC-SVG-20010904/DTD/svg10.dtd">
<svg version="1.0" xmlns="http://www.w3.org/2000/svg"
 width="260.000000pt" height="260.000000pt" viewBox="0 0 260.000000 260.000000"
 preserveAspectRatio="xMidYMid meet">
<metadata>
Created by potrace 1.14, written by Peter Selinger 2001-2017
</metadata>
<g transform="translate(0.000000,260.000000) scale(0.100000,-0.100000)"
fill="#000000" stroke="none">
<path d="M1616 2578 c-24 -38 -38 -109 -31 -155 3 -24 22 -73 41 -109 42 -79
44 -125 8 -196 -21 -42 -24 -55 -15 -74 19 -43 54 -28 87 39 47 92 43 184 -13
271 -34 53 -40 103 -17 165 14 41 15 52 5 65 -19 23 -48 20 -65 -6z"/>
<path d="M1307 2315 c-34 -34 -47 -142 -25 -206 6 -19 22 -50 34 -69 38 -57
41 -109 10 -175 -31 -68 -32 -91 -8 -104 28 -15 55 9 82 71 37 84 33 149 -14
240 -35 68 -38 79 -32 129 13 115 13 124 -10 127 -12 2 -29 -4 -37 -13z"/>
<path d="M397 1653 c-4 -3 -7 -44 -7 -89 l0 -83 -37 -6 c-103 -18 -196 -66
-249 -128 -45 -53 -83 -148 -96 -236 -24 -161 33 -322 157 -447 111 -112 235
-161 435 -171 l105 -6 75 -68 75 -69 -274 0 -274 0 5 -68 c9 -120 66 -211 160
-253 l53 -24 909 -3 c1006 -3 972 -5 1058 61 59 46 97 122 105 215 l6 72 -278
0 -277 0 71 66 c180 166 309 408 368 684 14 68 18 133 18 320 l0 235 -1051 3
c-578 1 -1054 -1 -1057 -5z m2031 -285 c-5 -188 -8 -225 -31 -310 -73 -277
-212 -498 -405 -645 l-83 -63 -456 0 -455 0 -67 47 c-177 127 -321 329 -396
558 -46 142 -56 212 -62 423 l-6 202 983 0 982 0 -4 -212z m-2038 -12 c0 -47
0 -48 -67 -61 -47 -9 -109 -59 -135 -107 -29 -57 -32 -197 -5 -275 24 -69 95
-147 167 -183 49 -25 81 -33 206 -56 12 -2 35 -25 53 -51 l31 -48 -44 -3 c-23
-2 -76 4 -117 12 -248 52 -414 257 -396 490 12 162 95 277 225 312 79 21 82
20 82 -30z m10 -153 c0 -54 49 -242 89 -343 l40 -102 -39 6 c-56 9 -122 40
-164 77 -57 49 -79 101 -83 194 -5 100 13 139 77 173 60 30 80 29 80 -5z
m2114 -960 c-11 -50 -53 -111 -91 -135 l-38 -23 -905 -3 c-659 -2 -916 0 -945
8 -74 22 -120 71 -140 153 l-7 27 1066 0 1066 0 -6 -27z"/>
</g>
</svg>
