<svg width="42" height="41" viewBox="0 0 42 41" fill="none" xmlns="http://www.w3.org/2000/svg">
<g clip-path="url(#clip0_19_97)">
<path d="M35.1808 0.029541H6.82107C3.58121 0.029541 0.945435 2.65802 0.945435 5.88892V34.1702C0.945435 37.4011 3.58121 40.0295 6.82107 40.0295H35.1808C38.4207 40.0295 41.0565 37.4011 41.0565 34.1702V5.88892C41.0565 2.65802 38.4207 0.029541 35.1808 0.029541ZM38.7062 34.1702C38.7062 36.1086 37.1247 37.6858 35.1808 37.6858H6.82107C4.87722 37.6858 3.29569 36.1086 3.29569 34.1702V5.88892C3.29569 3.95044 4.87722 2.37329 6.82107 2.37329H35.1808C37.1247 2.37329 38.7062 3.95044 38.7062 5.88892V34.1702Z" fill="#00A86B" stroke="#00A86B" stroke-width="0.5"/>
<path d="M19.8259 16.5139C19.8259 13.9291 17.7174 11.8264 15.1254 11.8264H8.07458V28.2327H15.1254C17.7174 28.2327 19.8259 26.13 19.8259 23.5452C19.8259 22.1462 19.2074 20.8892 18.2293 20.0295C19.2074 19.1699 19.8259 17.9128 19.8259 16.5139ZM17.4756 23.5452C17.4756 24.8376 16.4214 25.8889 15.1254 25.8889H10.4248V21.2014H15.1254C16.4214 21.2014 17.4756 22.2527 17.4756 23.5452ZM10.4248 18.8577V14.1702H15.1254C16.4214 14.1702 17.4756 15.2215 17.4756 16.5139C17.4756 17.8063 16.4214 18.8577 15.1254 18.8577H10.4248Z" fill="#00A86B" stroke="#00A86B" stroke-width="0.5"/>
<path d="M28.0517 16.5139C24.8118 16.5139 22.176 19.1424 22.176 22.3733C22.176 25.6042 24.8118 28.2327 28.0517 28.2327C30.1427 28.2327 32.0927 27.1105 33.1405 25.3039L31.1061 24.1302C30.4769 25.2151 29.3064 25.8889 28.0517 25.8889C26.5194 25.8889 25.2127 24.9093 24.7276 23.5452H33.9273V22.3733C33.9273 19.1424 31.2915 16.5139 28.0517 16.5139ZM24.7276 21.2014C25.2127 19.8373 26.5194 18.8577 28.0517 18.8577C29.5839 18.8577 30.8906 19.8373 31.3757 21.2014H24.7276Z" fill="#00A86B" stroke="#00A86B" stroke-width="0.5"/>
<path d="M23.3512 11.8264H32.7522V14.1702H23.3512V11.8264Z" fill="#00A86B" stroke="#00A86B" stroke-width="0.5"/>
</g>
<defs>
<clipPath id="clip0_19_97">
<rect width="40.111" height="40" fill="white" transform="translate(0.945435 0.029541)"/>
</clipPath>
</defs>
</svg>
