<svg width="40" height="41" viewBox="0 0 40 41" fill="none" xmlns="http://www.w3.org/2000/svg">
<path d="M11.3584 0.540128H11.8584V0.530518H27.7632C33.7277 0.530518 38.6102 5.51521 38.6102 11.6425V28.4165C38.6102 34.5441 33.7275 39.5286 27.7726 39.5286H11.3584C5.39248 39.5286 0.501953 34.5521 0.501953 28.4358V11.6522C0.501953 5.52536 5.39328 0.540128 11.3584 0.540128ZM2.51028 11.6608V11.6618V28.4454C2.51028 33.4315 6.43784 37.4621 11.3584 37.4621H27.7726C32.6758 37.4621 36.6019 33.43 36.6019 28.4261V11.6522C36.6019 6.64792 32.6754 2.61617 27.7632 2.61617H11.3584C6.44563 2.61617 2.52021 6.64824 2.51028 11.6608ZM30.5946 7.73022C30.5946 7.14029 31.0487 6.6922 31.5988 6.6922C32.1489 6.6922 32.603 7.14029 32.603 7.73022C32.603 8.32014 32.1489 8.76823 31.5988 8.76823C31.0487 8.76823 30.5946 8.32014 30.5946 7.73022ZM9.53634 20.0343C9.53634 14.3786 14.061 9.76823 19.5655 9.76823C25.0699 9.76823 29.5946 14.3786 29.5946 20.0343C29.5946 25.6901 25.0699 30.3005 19.5655 30.3005C14.061 30.3005 9.53634 25.6901 9.53634 20.0343ZM27.5863 20.0343C27.5863 15.5008 24.0261 11.8443 19.5655 11.8443C15.1049 11.8443 11.5447 15.5008 11.5447 20.0343C11.5447 24.5679 15.1049 28.2244 19.5655 28.2244C24.0261 28.2244 27.5863 24.5679 27.5863 20.0343Z" fill="#00A86B" stroke="#00A86B"/>
</svg>
