<svg width="40" height="41" viewBox="0 0 40 41" fill="none" xmlns="http://www.w3.org/2000/svg">
<path d="M31.1876 7.14921L31.4934 6.76497L31.1147 6.45232C28.1994 4.04518 24.4967 2.60729 20.4459 2.60729C19.0267 2.60729 17.6507 2.80611 16.3479 3.13182L15.6208 3.31361L16.0679 3.91516C17.4585 5.78603 19.4562 8.6116 21.8486 13.0369L22.0552 13.4191L22.4625 13.2679C26.9898 11.5868 29.7027 9.01535 31.1876 7.14921ZM13.8873 4.39143L13.6423 4.06865L13.2758 4.24154C8.77965 6.36236 5.37328 10.4132 4.02862 15.3602L3.86255 15.9711L4.49539 15.9911C6.97129 16.069 12.8895 15.9523 19.4471 14.1955L20.0656 14.0298L19.7549 13.4699C17.2115 8.88625 15.0726 5.95271 13.8873 4.39143ZM33.3411 8.65041L32.9534 8.18978L32.5719 8.65551C30.9158 10.6767 28.0406 13.302 23.4882 15.0834L22.9819 15.2815L23.2216 15.7694C24.2031 17.7676 25.1553 19.8969 26.0229 22.1963L26.1659 22.5752L26.5662 22.5141C29.8594 22.0113 32.9036 22.0112 35.203 22.1913C35.7621 22.2377 36.1229 22.2898 36.5428 22.3505C36.6312 22.3632 36.7223 22.3764 36.8184 22.3899L37.3304 22.4622L37.3854 21.948C37.4528 21.3174 37.4917 20.6842 37.4917 20.0295C37.4917 15.676 35.9143 11.7075 33.3411 8.65041ZM21.1941 16.2777L21.009 15.9066L20.61 16.0199C12.8968 18.2112 6.10208 18.1443 3.98603 18.0589L3.50419 18.0394L3.46732 18.5202L3.46474 18.5539C3.42818 19.0304 3.39065 19.5194 3.39065 20.0392C3.39065 25.2729 5.65502 29.9449 9.22596 33.1418L9.59876 33.4756L9.93223 33.1025C10.8274 32.1012 12.0279 30.8259 13.4876 29.4947L13.4896 29.4929C16.2358 26.9612 19.7693 24.2824 23.6183 23.1136L24.1352 22.9566L23.9388 22.4534C23.0772 20.2457 22.1496 18.1935 21.1941 16.2777ZM30.6837 24.1739L30.6783 24.1741C29.6671 24.2229 28.5908 24.3204 27.4963 24.4664L26.9015 24.5457L27.0869 25.1165C28.0106 27.9603 28.7748 30.9729 29.2684 34.1067L29.3926 34.8955L30.048 34.4392C33.234 32.2206 35.6441 28.9236 36.7668 25.0532L36.932 24.4836L36.3427 24.4171C34.8826 24.2522 33.0313 24.0861 30.6837 24.1739ZM25.0277 25.3592L24.8741 24.9058L24.4144 25.0396C21.0331 26.0234 17.4962 28.5746 14.8158 31.0349C13.5205 32.2136 12.4745 33.3323 11.635 34.2488L11.2223 34.6993L11.7456 35.0147C14.2912 36.5491 17.2471 37.4518 20.4365 37.4518C22.8301 37.4518 25.0878 36.9461 27.1497 36.0551L27.4977 35.9047L27.4468 35.529C26.9626 31.9551 26.1083 28.549 25.0277 25.3592ZM1.39172 20.0295C1.39172 9.27633 9.95897 0.530518 20.4459 0.530518C30.9327 0.530518 39.5 9.27633 39.5 20.0295C39.5 30.7828 30.9327 39.5286 20.4459 39.5286C9.95897 39.5286 1.39172 30.7828 1.39172 20.0295Z" fill="#00A86B" stroke="#00A86B"/>
</svg>
