<svg width="40" height="40" viewBox="0 0 40 40" fill="none" xmlns="http://www.w3.org/2000/svg">
<path d="M23.37 11.6667H25.0367C25.4786 11.6671 25.9022 11.8428 26.2147 12.1553C26.5272 12.4678 26.7029 12.8914 26.7033 13.3333V15C26.7033 15.442 26.8789 15.866 27.1915 16.1785C27.504 16.4911 27.928 16.6667 28.37 16.6667C28.812 16.6667 29.2359 16.4911 29.5485 16.1785C29.8611 15.866 30.0367 15.442 30.0367 15V13.3333C30.0353 12.0077 29.5081 10.7367 28.5707 9.79927C27.6333 8.86187 26.3623 8.33466 25.0367 8.33334H23.37C22.928 8.33334 22.504 8.50893 22.1915 8.82149C21.8789 9.13405 21.7033 9.55798 21.7033 10C21.7033 10.442 21.8789 10.866 22.1915 11.1785C22.504 11.4911 22.928 11.6667 23.37 11.6667ZM16.7033 26.6667H15.0367C14.5948 26.6662 14.1711 26.4905 13.8586 26.178C13.5462 25.8656 13.3704 25.4419 13.37 25V23.3333C13.37 22.8913 13.1944 22.4674 12.8818 22.1548C12.5693 21.8423 12.1454 21.6667 11.7033 21.6667C11.2613 21.6667 10.8374 21.8423 10.5248 22.1548C10.2123 22.4674 10.0367 22.8913 10.0367 23.3333V25C10.038 26.3257 10.5652 27.5967 11.5026 28.5341C12.44 29.4715 13.711 29.9987 15.0367 30H16.7033C17.1454 30 17.5693 29.8244 17.8818 29.5118C18.1944 29.1993 18.37 28.7754 18.37 28.3333C18.37 27.8913 18.1944 27.4674 17.8818 27.1548C17.5693 26.8423 17.1454 26.6667 16.7033 26.6667ZM35.0367 25C35.4787 25 35.9026 24.8244 36.2152 24.5118C36.5277 24.1993 36.7033 23.7754 36.7033 23.3333C36.7033 22.8913 36.5277 22.4674 36.2152 22.1548C35.9026 21.8423 35.4787 21.6667 35.0367 21.6667H30.0367V20.8333C30.0367 20.3913 29.8611 19.9674 29.5485 19.6548C29.2359 19.3423 28.812 19.1667 28.37 19.1667C27.928 19.1667 27.504 19.3423 27.1915 19.6548C26.8789 19.9674 26.7033 20.3913 26.7033 20.8333V21.6667H21.7033C21.2613 21.6667 20.8374 21.8423 20.5248 22.1548C20.2123 22.4674 20.0367 22.8913 20.0367 23.3333C20.0367 23.7754 20.2123 24.1993 20.5248 24.5118C20.8374 24.8244 21.2613 25 21.7033 25H30.3433C29.9666 26.5319 29.2709 27.967 28.3017 29.2117C27.9044 28.6973 27.5531 28.1491 27.2517 27.5733C27.1558 27.372 27.0205 27.192 26.8538 27.0439C26.6871 26.8959 26.4924 26.7827 26.2812 26.7113C26.07 26.6398 25.8466 26.6114 25.6242 26.6279C25.4018 26.6443 25.185 26.7051 24.9866 26.8069C24.7882 26.9086 24.6122 27.0491 24.4691 27.22C24.3259 27.391 24.2186 27.5889 24.1533 27.8021C24.088 28.0153 24.0662 28.2395 24.0891 28.4613C24.112 28.683 24.1792 28.898 24.2867 29.0933C24.736 29.9608 25.2721 30.7806 25.8867 31.54C24.6769 32.4182 23.3013 33.0414 21.8433 33.3717C21.4115 33.466 21.0348 33.7281 20.7961 34.1002C20.5575 34.4723 20.4765 34.924 20.5708 35.3558C20.6652 35.7877 20.9273 36.1644 21.2994 36.403C21.6715 36.6417 22.1231 36.7227 22.555 36.6283C24.6462 36.1657 26.6078 35.2421 28.2967 33.925C29.9999 35.2432 31.9747 36.1665 34.0783 36.6283C34.5102 36.7234 34.9621 36.643 35.3347 36.4048C35.7073 36.1666 35.97 35.7902 36.065 35.3583C36.16 34.9265 36.0796 34.4746 35.8414 34.102C35.6033 33.7294 35.2269 33.4667 34.795 33.3717C33.3281 33.0455 31.9417 32.4277 30.7183 31.555C32.2598 29.6583 33.2989 27.404 33.74 25H35.0367ZM15.0867 18.7383C15.1966 19.1643 15.4706 19.5296 15.8487 19.7544C16.2269 19.9792 16.6787 20.0454 17.1054 19.9385C17.5322 19.8316 17.8994 19.5603 18.1269 19.1837C18.3545 18.8071 18.4239 18.3559 18.32 17.9283L15.3917 6.21167C15.1862 5.389 14.7115 4.65864 14.0432 4.13674C13.3749 3.61484 12.5513 3.33134 11.7033 3.33134C10.8554 3.33134 10.0318 3.61484 9.36345 4.13674C8.69514 4.65864 8.2205 5.389 8.015 6.21167L5.08666 17.9283C4.9828 18.3559 5.0522 18.8071 5.27972 19.1837C5.50724 19.5603 5.87443 19.8316 6.30121 19.9385C6.72799 20.0454 7.17973 19.9792 7.55791 19.7544C7.93609 19.5296 8.21004 19.1643 8.32 18.7383L9.25333 15H14.1533L15.0867 18.7383ZM10.0867 11.6667L11.25 7.02167C11.285 6.92974 11.347 6.85062 11.428 6.79478C11.509 6.73895 11.605 6.70905 11.7033 6.70905C11.8017 6.70905 11.8977 6.73895 11.9787 6.79478C12.0596 6.85062 12.1217 6.92974 12.1567 7.02167L13.3183 11.6667H10.0867Z" fill="#00A86B"/>
</svg>
