<svg width="40" height="40" viewBox="0 0 40 40" fill="none" xmlns="http://www.w3.org/2000/svg">
<g clip-path="url(#clip0_16_255)">
<path d="M39.245 18.2175L21.78 0.755001C21.5409 0.515755 21.257 0.325968 20.9445 0.196483C20.632 0.0669975 20.297 0.000350952 19.9588 0.000350952C19.6205 0.000350952 19.2856 0.0669975 18.9731 0.196483C18.6606 0.325968 18.3766 0.515755 18.1375 0.755001L14.5125 4.38L19.1125 8.98C19.655 8.79477 20.2387 8.7658 20.7969 8.89637C21.3551 9.02695 21.8653 9.31183 22.2694 9.71848C22.6734 10.1251 22.955 10.6372 23.082 11.1962C23.209 11.7552 23.1762 12.3387 22.9875 12.88L27.42 17.315C28.0758 17.0841 28.7907 17.0834 29.4469 17.313C30.1031 17.5426 30.6616 17.9889 31.0304 18.5783C31.3991 19.1676 31.5562 19.865 31.4757 20.5556C31.3952 21.2462 31.082 21.8887 30.5875 22.3775C30.087 22.8811 29.4271 23.1953 28.7206 23.2664C28.0142 23.3376 27.3049 23.1612 26.714 22.7675C26.1232 22.3738 25.6873 21.7871 25.4809 21.1077C25.2746 20.4283 25.3105 19.6984 25.5825 19.0425L21.45 14.9075V25.79C22.0782 26.1009 22.5808 26.6178 22.8741 27.2543C23.1673 27.8909 23.2336 28.6088 23.0618 29.2883C22.89 29.9678 22.4904 30.5678 21.9298 30.9885C21.3692 31.4092 20.6814 31.625 19.9809 31.5999C19.2805 31.5749 18.6098 31.3106 18.0806 30.851C17.5514 30.3915 17.1957 29.7644 17.0728 29.0744C16.9499 28.3843 17.0672 27.673 17.4051 27.059C17.7431 26.445 18.2813 25.9653 18.93 25.7V14.7175C18.5557 14.5641 18.2155 14.3382 17.929 14.0527C17.6424 13.7673 17.4152 13.4279 17.2604 13.0542C17.1056 12.6805 17.0264 12.2799 17.0272 11.8754C17.0279 11.4709 17.1088 11.0706 17.265 10.6975L12.7325 6.1625L0.757519 18.1375C0.518273 18.3766 0.328486 18.6606 0.199001 18.973C0.0695152 19.2855 0.00286865 19.6205 0.00286865 19.9588C0.00286865 20.297 0.0695152 20.632 0.199001 20.9445C0.328486 21.257 0.518273 21.5409 0.757519 21.78L18.2225 39.245C18.4616 39.4842 18.7456 39.674 19.0581 39.8035C19.3706 39.933 19.7055 39.9996 20.0438 39.9996C20.382 39.9996 20.717 39.933 21.0295 39.8035C21.342 39.674 21.6259 39.4842 21.865 39.245L39.2475 21.8625C39.7301 21.3792 40.0011 20.7242 40.0011 20.0413C40.0011 19.3583 39.7301 18.7033 39.2475 18.22" fill="#00A86B"/>
</g>
<defs>
<clipPath id="clip0_16_255">
<rect width="40" height="40" fill="white"/>
</clipPath>
</defs>
</svg>
